<svg xmlns="http://www.w3.org/2000/svg" viewBox="0 0 720 380" width="720" height="380">
  <defs>
    <linearGradient id="bg" x1="0" y1="0" x2="0" y2="1"><stop offset="0%" stop-color="#1a1a2e"/><stop offset="100%" stop-color="#0f0f1a"/></linearGradient>
    <linearGradient id="g1" x1="0" y1="0" x2="1" y2="1"><stop offset="0%" stop-color="#d4a843"/><stop offset="100%" stop-color="#f5d980"/></linearGradient>
  </defs>
  <rect width="720" height="380" fill="url(#bg)" rx="8"/>
  
  <!-- Title -->
  <rect x="0" y="0" width="720" height="34" fill="rgba(212,168,67,0.08)" rx="8"/>
  <rect x="0" y="26" width="720" height="8" fill="rgba(212,168,67,0.08)"/>
  <text x="360" y="22" text-anchor="middle" fill="#d4a843" font-family="'Segoe UI',Arial,sans-serif" font-size="13" font-weight="bold" letter-spacing="0.5">MONEY FLOW: FROM STREET DEALS TO EMPIRE</text>

  <!-- ===== TOP ROW: 3 phase boxes ===== -->
  
  <!-- Phase 1: Street Level -->
  <rect x="30" y="50" width="200" height="90" rx="10" fill="rgba(212,168,67,0.03)" stroke="rgba(212,168,67,0.2)" stroke-width="1"/>
  <rect x="30" y="50" width="200" height="24" rx="10" fill="rgba(212,168,67,0.07)"/>
  <rect x="30" y="66" width="200" height="8"/>
  <text x="130" y="66" text-anchor="middle" fill="#d4a843" font-family="Arial,sans-serif" font-size="11" font-weight="bold">STREET LEVEL</text>
  
  <!-- Icons as simple shapes -->
  <circle cx="60" cy="102" r="12" fill="rgba(212,168,67,0.1)" stroke="#d4a843" stroke-width="1"/>
  <text x="60" y="106" text-anchor="middle" fill="#d4a843" font-family="Arial,sans-serif" font-size="11" font-weight="bold">D</text>
  <text x="80" y="100" fill="rgba(255,255,255,0.45)" font-family="Arial,sans-serif" font-size="9">Delivery jobs</text>
  
  <circle cx="60" cy="124" r="12" fill="rgba(212,168,67,0.1)" stroke="#d4a843" stroke-width="1"/>
  <text x="60" y="128" text-anchor="middle" fill="#d4a843" font-family="Arial,sans-serif" font-size="11" font-weight="bold">S</text>
  <text x="80" y="122" fill="rgba(255,255,255,0.45)" font-family="Arial,sans-serif" font-size="9">Shady street client</text>
  
  <!-- Earnings badge -->
  <rect x="160" y="98" width="55" height="18" rx="9" fill="rgba(212,168,67,0.12)" stroke="rgba(212,168,67,0.2)" stroke-width="0.5"/>
  <text x="187" y="111" text-anchor="middle" fill="#d4a843" font-family="Arial,sans-serif" font-size="9">$50-200/hr</text>

  <!-- Arrow 1 -->
  <text x="245" y="100" text-anchor="middle" fill="#d4a843" font-family="Arial,sans-serif" font-size="16">--></text>

  <!-- Phase 2: Basic Cook -->
  <rect x="260" y="50" width="200" height="90" rx="10" fill="rgba(212,168,67,0.03)" stroke="rgba(212,168,67,0.2)" stroke-width="1"/>
  <rect x="260" y="50" width="200" height="24" rx="10" fill="rgba(212,168,67,0.07)"/>
  <rect x="260" y="66" width="200" height="8"/>
  <text x="360" y="66" text-anchor="middle" fill="#d4a843" font-family="Arial,sans-serif" font-size="11" font-weight="bold">BASIC COOK</text>

  <circle cx="290" cy="102" r="12" fill="rgba(212,168,67,0.1)" stroke="#d4a843" stroke-width="1"/>
  <text x="290" y="106" text-anchor="middle" fill="#d4a843" font-family="Arial,sans-serif" font-size="11" font-weight="bold">M</text>
  <text x="310" y="100" fill="rgba(255,255,255,0.45)" font-family="Arial,sans-serif" font-size="9">Meth + cutting agents</text>

  <circle cx="290" cy="124" r="12" fill="rgba(212,168,67,0.1)" stroke="#d4a843" stroke-width="1"/>
  <text x="290" y="128" text-anchor="middle" fill="#d4a843" font-family="Arial,sans-serif" font-size="11" font-weight="bold">C</text>
  <text x="310" y="122" fill="rgba(255,255,255,0.45)" font-family="Arial,sans-serif" font-size="9">Customers &amp; street sales</text>

  <rect x="390" y="98" width="55" height="18" rx="9" fill="rgba(212,168,67,0.12)" stroke="rgba(212,168,67,0.2)" stroke-width="0.5"/>
  <text x="417" y="111" text-anchor="middle" fill="#d4a843" font-family="Arial,sans-serif" font-size="9">$200-800/hr</text>

  <!-- Arrow 2 -->
  <text x="475" y="100" text-anchor="middle" fill="#d4a843" font-family="Arial,sans-serif" font-size="16">--></text>

  <!-- Phase 3: Empire -->
  <rect x="490" y="50" width="200" height="90" rx="10" fill="rgba(212,168,67,0.03)" stroke="rgba(212,168,67,0.2)" stroke-width="1"/>
  <rect x="490" y="50" width="200" height="24" rx="10" fill="rgba(212,168,67,0.07)"/>
  <rect x="490" y="66" width="200" height="8"/>
  <text x="590" y="66" text-anchor="middle" fill="#d4a843" font-family="Arial,sans-serif" font-size="11" font-weight="bold">EMPIRE</text>

  <circle cx="520" cy="102" r="12" fill="rgba(212,168,67,0.1)" stroke="#d4a843" stroke-width="1"/>
  <text x="520" y="106" text-anchor="middle" fill="#d4a843" font-family="Arial,sans-serif" font-size="11" font-weight="bold">S</text>
  <text x="540" y="100" fill="rgba(255,255,255,0.45)" font-family="Arial,sans-serif" font-size="9">Staff + distributors</text>

  <circle cx="520" cy="124" r="12" fill="rgba(212,168,67,0.1)" stroke="#d4a843" stroke-width="1"/>
  <text x="520" y="128" text-anchor="middle" fill="#d4a843" font-family="Arial,sans-serif" font-size="11" font-weight="bold">H</text>
  <text x="540" y="122" fill="rgba(255,255,255,0.45)" font-family="Arial,sans-serif" font-size="9">Multiple hideout labs</text>

  <rect x="620" y="98" width="55" height="18" rx="9" fill="url(#g1)" opacity="0.25" stroke="#d4a843" stroke-width="0.5"/>
  <text x="647" y="111" text-anchor="middle" fill="#d4a843" font-family="Arial,sans-serif" font-size="9" font-weight="bold">$2K+/hr</text>

  <!-- ===== DIVIDER ===== -->
  <line x1="30" y1="155" x2="690" y2="155" stroke="rgba(212,168,67,0.1)" stroke-width="1"/>
  <text x="360" y="168" text-anchor="middle" fill="rgba(255,255,255,0.2)" font-family="Arial,sans-serif" font-size="9">PRODUCTIONS METHODS -- EARNING POTENTIAL</text>

  <!-- ===== BOTTOM: 3 production methods ===== -->
  
  <!-- Method 1: Meth -->
  <rect x="30" y="180" width="210" height="175" rx="8" fill="rgba(255,255,255,0.02)" stroke="rgba(212,168,67,0.1)" stroke-width="1"/>
  <rect x="30" y="180" width="210" height="24" rx="8" fill="rgba(212,168,67,0.05)"/>
  <rect x="30" y="196" width="210" height="8"/>
  <text x="135" y="196" text-anchor="middle" fill="#d4a843" font-family="Arial,sans-serif" font-size="10" font-weight="bold">METHAMPHETAMINES</text>
  
  <!-- Ingredient flow -->
  <text x="45" y="222" fill="rgba(255,255,255,0.35)" font-family="Arial,sans-serif" font-size="8">Recipe:</text>
  <rect x="45" y="230" width="42" height="42" rx="4" fill="rgba(212,168,67,0.08)" stroke="rgba(212,168,67,0.15)" stroke-width="0.5"/>
  <text x="66" y="250" text-anchor="middle" fill="#d4a843" font-family="Arial,sans-serif" font-size="9" font-weight="bold">E</text>
  <text x="66" y="262" text-anchor="middle" fill="rgba(255,255,255,0.3)" font-family="Arial,sans-serif" font-size="6">Ephedrine</text>
  
  <text x="97" y="253" text-anchor="middle" fill="rgba(255,255,255,0.2)" font-family="Arial,sans-serif" font-size="12">+</text>
  
  <rect x="110" y="230" width="42" height="42" rx="4" fill="rgba(255,255,255,0.03)" stroke="rgba(255,255,255,0.08)" stroke-width="0.5"/>
  <text x="131" y="250" text-anchor="middle" fill="rgba(255,255,255,0.4)" font-family="Arial,sans-serif" font-size="9">?</text>
  <text x="131" y="262" text-anchor="middle" fill="rgba(255,255,255,0.3)" font-family="Arial,sans-serif" font-size="6">Cut 4x</text>

  <rect x="162" y="230" width="42" height="42" rx="4" fill="rgba(212,168,67,0.12)" stroke="#d4a843" stroke-width="0.8"/>
  <text x="183" y="250" text-anchor="middle" fill="#d4a843" font-family="Arial,sans-serif" font-size="9" font-weight="bold">C</text>
  <text x="183" y="262" text-anchor="middle" fill="#d4a843" font-family="Arial,sans-serif" font-size="6">Cook</text>

  <!-- Metrics bar -->
  <text x="45" y="286" fill="rgba(255,255,255,0.3)" font-family="Arial,sans-serif" font-size="8">Cost</text>
  <rect x="45" y="292" width="180" height="4" rx="2" fill="rgba(255,255,255,0.03)"/>
  <rect x="45" y="292" width="90" height="4" rx="2" fill="rgba(212,168,67,0.3)"/>
  
  <text x="45" y="308" fill="rgba(255,255,255,0.3)" font-family="Arial,sans-serif" font-size="8">Profit</text>
  <rect x="45" y="314" width="180" height="4" rx="2" fill="rgba(255,255,255,0.03)"/>
  <rect x="45" y="314" width="135" height="4" rx="2" fill="rgba(212,168,67,0.5)"/>

  <text x="45" y="340" fill="rgba(255,255,255,0.25)" font-family="Arial,sans-serif" font-size="7">Moderate startup, stable income</text>
  <text x="45" y="350" fill="rgba(255,255,255,0.15)" font-family="Arial,sans-serif" font-size="7">Requires base + cutting + cooking</text>

  <!-- Method 2: Weed -->
  <rect x="255" y="180" width="210" height="175" rx="8" fill="rgba(255,255,255,0.02)" stroke="rgba(212,168,67,0.1)" stroke-width="1"/>
  <rect x="255" y="180" width="210" height="24" rx="8" fill="rgba(212,168,67,0.05)"/>
  <rect x="255" y="196" width="210" height="8"/>
  <text x="360" y="196" text-anchor="middle" fill="#d4a843" font-family="Arial,sans-serif" font-size="10" font-weight="bold">CANNABIS</text>

  <text x="270" y="222" fill="rgba(255,255,255,0.35)" font-family="Arial,sans-serif" font-size="8">Grow cycle:</text>
  
  <rect x="270" y="230" width="42" height="42" rx="4" fill="rgba(212,168,67,0.08)" stroke="rgba(212,168,67,0.15)" stroke-width="0.5"/>
  <text x="291" y="250" text-anchor="middle" fill="#d4a843" font-family="Arial,sans-serif" font-size="9" font-weight="bold">S</text>
  <text x="291" y="262" text-anchor="middle" fill="rgba(255,255,255,0.3)" font-family="Arial,sans-serif" font-size="6">Seed</text>
  
  <text x="322" y="253" text-anchor="middle" fill="rgba(255,255,255,0.2)" font-family="Arial,sans-serif" font-size="12">-></text>
  
  <rect x="334" y="230" width="42" height="42" rx="4" fill="rgba(212,168,67,0.08)" stroke="rgba(212,168,67,0.15)" stroke-width="0.5"/>
  <text x="355" y="250" text-anchor="middle" fill="#d4a843" font-family="Arial,sans-serif" font-size="9" font-weight="bold">P</text>
  <text x="355" y="262" text-anchor="middle" fill="rgba(255,255,255,0.3)" font-family="Arial,sans-serif" font-size="6">Plant</text>
  
  <text x="386" y="253" text-anchor="middle" fill="rgba(255,255,255,0.2)" font-family="Arial,sans-serif" font-size="12">-></text>

  <rect x="398" y="230" width="42" height="42" rx="4" fill="rgba(212,168,67,0.12)" stroke="#d4a843" stroke-width="0.8"/>
  <text x="419" y="250" text-anchor="middle" fill="#d4a843" font-family="Arial,sans-serif" font-size="9" font-weight="bold">H</text>
  <text x="419" y="262" text-anchor="middle" fill="#d4a843" font-family="Arial,sans-serif" font-size="6">Harvest</text>

  <text x="270" y="286" fill="rgba(255,255,255,0.3)" font-family="Arial,sans-serif" font-size="8">Cost</text>
  <rect x="270" y="292" width="180" height="4" rx="2" fill="rgba(255,255,255,0.03)"/>
  <rect x="270" y="292" width="50" height="4" rx="2" fill="rgba(212,168,67,0.3)"/>

  <text x="270" y="308" fill="rgba(255,255,255,0.3)" font-family="Arial,sans-serif" font-size="8">Profit</text>
  <rect x="270" y="314" width="180" height="4" rx="2" fill="rgba(255,255,255,0.03)"/>
  <rect x="270" y="314" width="108" height="4" rx="2" fill="rgba(212,168,67,0.5)"/>

  <text x="270" y="340" fill="rgba(255,255,255,0.25)" font-family="Arial,sans-serif" font-size="7">Low startup, passive income</text>
  <text x="270" y="350" fill="rgba(255,255,255,0.15)" font-family="Arial,sans-serif" font-size="7">Requires plant setup + wait time</text>

  <!-- Method 3: Opium -->
  <rect x="480" y="180" width="210" height="175" rx="8" fill="rgba(255,255,255,0.02)" stroke="rgba(212,168,67,0.1)" stroke-width="1"/>
  <rect x="480" y="180" width="210" height="24" rx="8" fill="rgba(212,168,67,0.05)"/>
  <rect x="480" y="196" width="210" height="8"/>
  <text x="585" y="196" text-anchor="middle" fill="#d4a843" font-family="Arial,sans-serif" font-size="10" font-weight="bold">OPIATE CHAIN</text>

  <text x="495" y="222" fill="rgba(255,255,255,0.35)" font-family="Arial,sans-serif" font-size="8">Processing:</text>

  <rect x="495" y="230" width="42" height="42" rx="4" fill="rgba(212,168,67,0.08)" stroke="rgba(212,168,67,0.15)" stroke-width="0.5"/>
  <text x="516" y="250" text-anchor="middle" fill="#d4a843" font-family="Arial,sans-serif" font-size="9" font-weight="bold">P</text>
  <text x="516" y="262" text-anchor="middle" fill="rgba(255,255,255,0.3)" font-family="Arial,sans-serif" font-size="6">Poppy</text>
  
  <text x="547" y="253" text-anchor="middle" fill="rgba(255,255,255,0.2)" font-family="Arial,sans-serif" font-size="12">-></text>
  
  <rect x="559" y="230" width="42" height="42" rx="4" fill="rgba(212,168,67,0.12)" stroke="#d4a843" stroke-width="0.8"/>
  <text x="580" y="250" text-anchor="middle" fill="#d4a843" font-family="Arial,sans-serif" font-size="9" font-weight="bold">O</text>
  <text x="580" y="262" text-anchor="middle" fill="#d4a843" font-family="Arial,sans-serif" font-size="6">Opium</text>
  
  <text x="611" y="253" text-anchor="middle" fill="rgba(255,255,255,0.2)" font-family="Arial,sans-serif" font-size="12">+</text>

  <rect x="623" y="230" width="42" height="42" rx="4" fill="rgba(255,255,255,0.03)" stroke="rgba(255,255,255,0.08)" stroke-width="0.5"/>
  <text x="644" y="250" text-anchor="middle" fill="rgba(255,255,255,0.4)" font-family="Arial,sans-serif" font-size="9">?</text>
  <text x="644" y="262" text-anchor="middle" fill="rgba(255,255,255,0.3)" font-family="Arial,sans-serif" font-size="6">Cut</text>

  <text x="495" y="286" fill="rgba(255,255,255,0.3)" font-family="Arial,sans-serif" font-size="8">Cost</text>
  <rect x="495" y="292" width="180" height="4" rx="2" fill="rgba(255,255,255,0.03)"/>
  <rect x="495" y="292" width="126" height="4" rx="2" fill="rgba(212,168,67,0.3)"/>

  <text x="495" y="308" fill="rgba(255,255,255,0.3)" font-family="Arial,sans-serif" font-size="8">Profit</text>
  <rect x="495" y="314" width="180" height="4" rx="2" fill="rgba(255,255,255,0.03)"/>
  <rect x="495" y="314" width="160" height="4" rx="2" fill="url(#g1)" opacity="0.6"/>

  <text x="495" y="340" fill="rgba(255,255,255,0.25)" font-family="Arial,sans-serif" font-size="7">High-end, best ROI late game</text>
  <text x="495" y="350" fill="rgba(255,255,255,0.15)" font-family="Arial,sans-serif" font-size="7">Requires advanced hideout setup</text>
</svg>
